# xmcd
#
# Track frame offsets:
#	150
#	42776
#	69700
#	90845
#	108179
#	134675
#	161387
#
# Disc length: 2366 seconds
#
# Revision: 1
# Processed by: cddbd v1.5.2PL0 Copyright (c) Steve Scherf et al.
# Submitted via: audiograbber 1.83.01
#
DISCID=51093c07
DTITLE=Tigran Hamasyan - Atmospheres CD2
DYEAR=2016
DGENRE=Jazz
TTITLE0=Traces VII
TTITLE1=Traces VIII
TTITLE2=Shushiki
TTITLE3=Hoy, Nazan
TTITLE4=Traces IX
TTITLE5=Traces X
TTITLE6=Angel Of Girona - Qeler Tsoler
EXTD=YEAR: 2016
EXTT0=
EXTT1=
EXTT2=
EXTT3=
EXTT4=
EXTT5=
EXTT6=
PLAYORDER=
